<?xml version="1.0" encoding="utf-8"?>
<svg
    xmlns:dc="http://purl.org/dc/elements/1.1/"
    xmlns:cc="http://creativecommons.org/ns#"
    xmlns:rdf="http://www.w3.org/1999/02/22-rdf-syntax-ns#"
    xmlns:svg="http://www.w3.org/2000/svg"
    xmlns="http://www.w3.org/2000/svg"
    version="1.1"
    width="100%"
    height="100%"
    preserveAspectRatio="xMinYMin meet"
    viewBox="0 0 718.008 233.334">
<polygon fill="#FF2E42" points="427.447,74.204 422.939,66.387 415.121,70.893 410.268,62.475 402.45,66.981 407.304,75.4 
	398.885,80.255 403.393,88.073 411.812,83.219 416.318,91.037 424.137,86.529 419.629,78.711 "/>
<polygon fill="none" stroke="#000000" stroke-width="0.694" stroke-miterlimit="10" points="427.447,74.204 422.939,66.387 
	415.121,70.893 410.268,62.475 402.45,66.981 407.304,75.4 398.885,80.255 403.393,88.073 411.812,83.219 416.318,91.037 
	424.137,86.529 419.629,78.711 "/>
<polygon fill="none" stroke="#000000" stroke-miterlimit="10" points="432.896,3.063 350.896,201.73 439.229,206.396 "/>
<path fill="none" stroke="#000000" stroke-miterlimit="10" d="M439.229,34.396l-49,34.333c0,0,13.683,33.385,46.841,68.358
	C437.07,137.088,440.229,54.729,439.229,34.396z"/>
<polyline fill="none" stroke="#000000" stroke-miterlimit="10" points="398.356,84.855 326.229,203.063 439.229,208.396 "/>
<path fill="none" stroke="#000000" stroke-width="2" stroke-miterlimit="10" d="M345.229,211.23l19.667,8.166h118.666l10.334-7.916
	C493.896,211.48,362.229,216.896,345.229,211.23z"/>
<polygon fill="none" stroke="#000000" stroke-miterlimit="10" points="432.896,3.063 508.563,208.396 434.309,48.415 "/>
<polygon fill="none" stroke="#000000" stroke-miterlimit="10" points="435.763,95.098 508.563,208.396 474.563,193.063 "/>
<line fill="none" stroke="#000000" stroke-miterlimit="10" x1="436.715" y1="124.771" x2="465.607" y2="171.715"/>
<polyline fill="none" stroke="#000000" stroke-miterlimit="10" points="448.342,143.661 443.896,202.063 478.896,208.396 
	474.563,193.063 "/>
<polyline fill="none" stroke="#000000" stroke-miterlimit="10" points="448.191,126.48 470.729,199.396 497.119,203.236 "/>
<line fill="none" stroke="#000000" stroke-miterlimit="10" x1="475.823" y1="193.631" x2="483.896" y2="208.396"/>
<polyline fill="none" stroke="#000000" stroke-miterlimit="10" points="441.238,63.345 524.229,206.396 447.486,124.697 "/>
<line fill="none" stroke="#000000" stroke-miterlimit="10" x1="444.896" y1="69.649" x2="459.125" y2="137.089"/>
<line fill="none" stroke="#000000" stroke-miterlimit="10" x1="443.896" y1="67.926" x2="441.867" y2="133.142"/>
<line fill="none" stroke="#000000" stroke-width="2" stroke-miterlimit="10" x1="345.563" y1="219.396" x2="512.563" y2="219.396"/>
<line fill="none" stroke="#000000" stroke-miterlimit="10" x1="439.229" y1="208.396" x2="526.563" y2="208.896"/>
<line fill="none" stroke="#000000" stroke-width="2" stroke-miterlimit="10" x1="433.031" y1="5.063" x2="439.427" y2="212.872"/>
<g>
	<path fill="#4D4D4D" d="M52.225,148.319c0.248-0.78,0.834-1.313,1.757-1.597c0.496-0.142,1.028-0.248,1.597-0.319
		c0.567-0.07,1.117-0.133,1.649-0.186s1.021-0.089,1.464-0.106s0.789-0.027,1.038-0.027c0.39,0,0.646,0.063,0.771,0.187
		c0.124,0.125,0.187,0.275,0.187,0.452c0,0.143-0.089,0.444-0.267,0.905l-25.287,60.419c-0.284,0.604-0.586,0.923-0.904,0.958
		c-0.178,0.035-0.471,0.071-0.879,0.107c-0.408,0.034-0.834,0.062-1.277,0.079s-0.869,0.035-1.277,0.054
		c-0.408,0.017-0.683,0.026-0.824,0.026c-0.213,0-0.417-0.054-0.612-0.159c-0.195-0.107-0.364-0.338-0.506-0.692L7.875,154.389
		c-0.639-1.668-1.393-2.785-2.262-3.354c-0.869-0.567-1.871-0.852-3.006-0.852c-0.355,0-0.719,0.019-1.091,0.054
		s-0.771,0.089-1.197,0.159L0,147.459c1.562-0.322,3.122-0.601,4.683-0.834c1.561-0.232,2.989-0.43,4.284-0.592
		c1.295-0.161,2.386-0.287,3.272-0.377s1.455-0.135,1.703-0.135c0.532,0,0.923,0.169,1.171,0.506
		c0.248,0.338,0.497,0.809,0.745,1.412l19.009,49.589h0.213L52.225,148.319z"/>
	<path fill="#4D4D4D" d="M76.235,209.459c-2.949,0-5.622-0.523-8.02-1.569c-2.398-1.047-4.468-2.475-6.208-4.284
		c-1.74-1.809-3.081-3.946-4.022-6.412c-0.941-2.465-1.412-5.117-1.412-7.956c0-3.121,0.541-5.977,1.625-8.566
		c1.083-2.59,2.584-4.798,4.502-6.625s4.21-3.246,6.874-4.258c2.664-1.011,5.596-1.517,8.793-1.517c2.948,0,5.639,0.506,8.072,1.517
		c2.434,1.012,4.512,2.404,6.234,4.178s3.064,3.867,4.023,6.279s1.438,5.02,1.438,7.822c0,3.193-0.533,6.111-1.599,8.754
		c-1.066,2.643-2.567,4.896-4.503,6.758c-1.936,1.863-4.245,3.309-6.927,4.337C82.425,208.944,79.468,209.459,76.235,209.459z
		 M78.737,204.771c1.915,0,3.493-0.416,4.735-1.25c1.241-0.833,2.217-1.905,2.926-3.218s1.197-2.784,1.463-4.416
		c0.266-1.631,0.399-3.228,0.399-4.788c0-1.915-0.204-3.937-0.612-6.064s-1.091-4.088-2.048-5.879
		c-0.958-1.791-2.217-3.271-3.777-4.441s-3.494-1.756-5.799-1.756c-1.916,0-3.494,0.417-4.735,1.25
		c-1.241,0.834-2.217,1.915-2.926,3.245s-1.206,2.803-1.489,4.416c-0.284,1.613-0.426,3.219-0.426,4.814
		c0,1.951,0.212,3.99,0.638,6.118s1.117,4.078,2.075,5.852c0.957,1.773,2.217,3.236,3.777,4.389S76.432,204.771,78.737,204.771z"/>
	<path fill="#4D4D4D" d="M134.881,171.086c0.178-0.461,0.391-0.808,0.639-1.038s0.621-0.416,1.118-0.559
		c0.531-0.142,1.081-0.266,1.649-0.372c0.567-0.106,1.117-0.195,1.649-0.267c0.532-0.07,1.021-0.133,1.464-0.187
		c0.443-0.053,0.79-0.08,1.038-0.08c0.639,0,0.958,0.213,0.958,0.639c0,0.249-0.089,0.551-0.267,0.905
		c-1.278,2.52-2.601,5.172-3.967,7.957c-1.367,2.785-2.742,5.606-4.127,8.463s-2.742,5.704-4.073,8.543s-2.6,5.571-3.807,8.196
		c-1.207,2.626-2.316,5.103-3.328,7.429s-1.891,4.396-2.636,6.207c-0.639,1.598-1.385,3.356-2.236,5.275
		c-0.852,1.917-1.891,3.702-3.115,5.354c-1.225,1.651-2.672,3.027-4.34,4.13c-1.668,1.101-3.638,1.651-5.909,1.651
		c-0.924,0-1.758-0.143-2.503-0.426c-0.746-0.285-1.385-0.676-1.917-1.172c-0.533-0.498-0.94-1.066-1.225-1.704
		c-0.283-0.64-0.426-1.332-0.426-2.077c0-0.568,0.098-1.163,0.293-1.784s0.523-1.181,0.985-1.677
		c0.816,0.461,1.597,0.789,2.343,0.984c0.745,0.195,1.526,0.293,2.343,0.293c0.994,0,1.97-0.16,2.929-0.479
		c0.959-0.32,1.899-0.88,2.822-1.679c0.923-0.8,1.854-1.875,2.796-3.225c0.94-1.351,1.89-3.074,2.849-5.17l3.089-6.822
		l-13.261-30.322c-0.71-1.667-1.455-2.784-2.235-3.352c-0.781-0.567-1.722-0.852-2.821-0.852c-0.355,0-0.728,0.019-1.118,0.054
		c-0.39,0.035-0.798,0.089-1.224,0.159l-0.319-2.563c1.455-0.427,2.928-0.818,4.418-1.175c1.49-0.355,2.874-0.667,4.151-0.935
		c1.277-0.267,2.359-0.472,3.246-0.614s1.455-0.214,1.703-0.214c0.532,0,0.923,0.169,1.171,0.506
		c0.248,0.338,0.497,0.808,0.745,1.41l10.281,26.506h0.213L134.881,171.086z"/>
	<path fill="#4D4D4D" d="M147.381,172.69c1.846-0.748,3.664-1.407,5.457-1.978c1.792-0.57,3.478-1.042,5.058-1.417
		c1.579-0.374,3.017-0.659,4.313-0.855c1.295-0.195,2.369-0.294,3.222-0.294c2.555,0,4.702,0.293,6.441,0.879
		s3.142,1.518,4.206,2.795s1.828,2.901,2.289,4.871s0.675,4.339,0.64,7.106l-0.267,17.354c-0.035,1.101,0.035,2.13,0.213,3.088
		s0.373,1.898,0.586,2.821c0.035,0.035,0.053,0.178,0.053,0.426c0,0.532-0.355,0.852-1.064,0.958
		c-0.462,0.105-0.986,0.203-1.572,0.293c-0.586,0.088-1.182,0.159-1.785,0.213c-0.604,0.052-1.208,0.088-1.812,0.106
		c-0.604,0.017-1.137,0.026-1.598,0.026c-0.391,0-0.684-0.107-0.879-0.32c-0.195-0.215-0.347-0.535-0.453-0.963l-0.692-2.567
		c-1.35,0.606-2.733,1.168-4.153,1.686s-2.778,0.963-4.073,1.337c-1.296,0.374-2.477,0.668-3.541,0.883
		c-1.065,0.213-1.936,0.32-2.609,0.32c-1.881,0-3.514-0.347-4.898-1.04s-2.521-1.564-3.407-2.613
		c-0.888-1.049-1.545-2.204-1.971-3.466s-0.639-2.462-0.639-3.601c0-2.025,0.363-3.741,1.091-5.146s1.713-2.568,2.956-3.493
		c1.1-0.817,2.387-1.493,3.859-2.026s3.097-0.951,4.872-1.254c1.775-0.302,3.692-0.523,5.751-0.666s4.225-0.249,6.496-0.32
		l0.054-1.8c0.035-1.623-0.063-3.079-0.294-4.368c-0.23-1.288-0.647-2.373-1.251-3.256s-1.419-1.554-2.448-2.013
		s-2.324-0.688-3.885-0.688c-1.916,0-3.912,0.214-5.987,0.641c-2.076,0.428-4.444,1.068-7.105,1.922L147.381,172.69z
		 M169.417,189.459c-1.668,0.107-3.229,0.205-4.685,0.294s-2.786,0.222-3.993,0.399s-2.271,0.453-3.194,0.826
		s-1.668,0.897-2.235,1.572c-0.426,0.498-0.781,1.119-1.064,1.865c-0.284,0.746-0.426,1.563-0.426,2.452
		c0,0.746,0.115,1.511,0.346,2.292c0.23,0.782,0.639,1.502,1.225,2.159c0.585,0.657,1.374,1.199,2.368,1.625
		c0.994,0.427,2.254,0.64,3.78,0.64c0.213,0,0.559-0.035,1.038-0.106c0.479-0.07,1.064-0.186,1.757-0.346
		c0.691-0.16,1.464-0.382,2.315-0.666c0.852-0.283,1.721-0.639,2.608-1.064L169.417,189.459z"/>
	<path fill="#4D4D4D" d="M220.208,173.59c1.101,1.241,1.944,2.615,2.53,4.122c0.586,1.508,0.879,3.112,0.879,4.813
		c0,2.305-0.453,4.397-1.358,6.276c-0.906,1.879-2.185,3.492-3.836,4.84c-1.652,1.348-3.614,2.395-5.888,3.139
		s-4.777,1.116-7.512,1.116c-2.238,0-4.067-0.23-5.487-0.691c-0.536,0.673-1.063,1.346-1.58,2.019s-0.776,1.363-0.776,2.071
		c0,0.85,0.487,1.514,1.464,1.991c0.977,0.479,2.165,0.841,3.567,1.089c1.401,0.248,2.883,0.407,4.445,0.478
		c1.562,0.071,2.946,0.106,4.153,0.106c2.164,0,4.32,0.143,6.468,0.427c2.147,0.285,4.073,0.801,5.777,1.547
		c1.703,0.747,3.088,1.777,4.152,3.094c1.064,1.314,1.598,3.004,1.598,5.066c0,1.955-0.453,3.76-1.357,5.414
		c-0.904,1.652-2.084,3.154-3.538,4.507c-1.455,1.351-3.113,2.551-4.976,3.601c-1.862,1.048-3.769,1.92-5.72,2.613
		s-3.858,1.218-5.721,1.573s-3.503,0.533-4.922,0.533c-1.668,0-3.441-0.231-5.321-0.694c-1.881-0.463-3.61-1.157-5.188-2.082
		c-1.578-0.927-2.891-2.074-3.938-3.444c-1.047-1.372-1.569-2.982-1.569-4.834c0-1.104,0.186-2.163,0.557-3.177
		c0.371-1.016,0.857-2.013,1.459-2.991c0.602-0.979,1.309-1.95,2.122-2.91c0.813-0.962,1.662-1.941,2.547-2.938
		c-0.498-0.248-0.969-0.585-1.412-1.009c-0.443-0.425-0.825-0.893-1.145-1.406c-0.32-0.514-0.577-1.035-0.772-1.566
		s-0.293-1.044-0.293-1.54c0-1.098,0.498-2.327,1.494-3.69c0.996-1.362,2.632-3.105,4.909-5.229c-2.451-1.24-4.36-2.96-5.728-5.159
		c-1.367-2.198-2.051-4.645-2.051-7.34c0-2.233,0.452-4.281,1.358-6.143c0.905-1.861,2.184-3.448,3.836-4.761
		c1.651-1.312,3.604-2.331,5.86-3.058c2.255-0.727,4.75-1.091,7.485-1.091c2.131,0,4.102,0.267,5.913,0.798
		c1.811,0.532,3.409,1.259,4.795,2.181c3.441-0.892,6.138-1.569,8.089-2.033c1.951-0.463,3.176-0.695,3.673-0.695
		c0.993,0,1.49,0.53,1.49,1.591c0,0.672-0.036,1.36-0.106,2.067c-0.071,0.707-0.16,1.467-0.266,2.279L220.208,173.59z
		 M196.755,211.748c-0.907,1.285-1.604,2.428-2.093,3.428s-0.732,2.106-0.732,3.32c0,1.5,0.47,2.768,1.409,3.804
		c0.939,1.034,2.126,1.874,3.562,2.517s2.986,1.098,4.652,1.366c1.666,0.267,3.243,0.401,4.732,0.401
		c1.205,0,2.552-0.126,4.04-0.375c1.488-0.251,2.871-0.671,4.147-1.26c1.275-0.591,2.348-1.377,3.217-2.358
		c0.868-0.983,1.303-2.226,1.303-3.727c0-1.287-0.373-2.314-1.119-3.082c-0.746-0.769-1.714-1.358-2.903-1.769
		c-1.189-0.412-2.548-0.68-4.075-0.805s-3.054-0.188-4.58-0.188c-0.817,0-1.714-0.019-2.69-0.053
		c-0.977-0.036-1.98-0.107-3.01-0.213c-1.03-0.106-2.052-0.239-3.063-0.397C198.54,212.198,197.607,211.995,196.755,211.748z
		 M206.308,193.521c1.386,0,2.585-0.247,3.599-0.743c1.013-0.496,1.839-1.16,2.479-1.992s1.119-1.806,1.439-2.921
		s0.48-2.293,0.48-3.533c0-1.416-0.169-2.823-0.507-4.222s-0.861-2.656-1.572-3.771s-1.627-2.01-2.746-2.683s-2.443-1.01-3.972-1.01
		c-1.387,0-2.577,0.257-3.572,0.771c-0.996,0.514-1.813,1.195-2.453,2.045s-1.11,1.842-1.412,2.975
		c-0.303,1.133-0.453,2.319-0.453,3.559c0,1.381,0.159,2.763,0.479,4.144s0.826,2.62,1.52,3.718s1.591,1.983,2.692,2.656
		S204.744,193.521,206.308,193.521z"/>
	<path fill="#4D4D4D" d="M271.684,203.875c-1.703,0.815-3.494,1.568-5.374,2.26s-3.716,1.286-5.507,1.782
		c-1.791,0.495-3.458,0.877-5.001,1.144c-1.543,0.265-2.829,0.398-3.857,0.398c-2.873,0-5.418-0.541-7.635-1.623
		s-4.079-2.519-5.587-4.311c-1.508-1.791-2.651-3.857-3.432-6.199c-0.78-2.341-1.17-4.771-1.17-7.29
		c0-3.264,0.603-6.234,1.809-8.913c1.205-2.678,2.846-4.966,4.92-6.864s4.495-3.37,7.262-4.417c2.766-1.047,5.691-1.57,8.777-1.57
		c2.021,0,3.813,0.311,5.373,0.931s2.872,1.471,3.937,2.552c1.063,1.081,1.879,2.384,2.446,3.907s0.852,3.189,0.852,4.996
		c0,1.56-0.302,3.509-0.903,5.848l-24.981,1.329c0.142,2.238,0.585,4.281,1.329,6.129s1.798,3.446,3.163,4.796
		s3.031,2.397,4.998,3.144s4.227,1.119,6.779,1.119c1.701,0,3.518-0.203,5.449-0.61s3.659-0.912,5.184-1.515L271.684,203.875z
		 M259.856,183.417c0.105-0.495,0.177-0.973,0.212-1.433s0.054-0.938,0.054-1.434c0-0.99-0.15-1.927-0.451-2.812
		s-0.734-1.654-1.301-2.309s-1.274-1.168-2.124-1.539s-1.805-0.558-2.866-0.558c-1.699,0-3.159,0.31-4.38,0.929
		s-2.229,1.442-3.025,2.468c-0.797,1.026-1.39,2.221-1.778,3.582c-0.39,1.362-0.602,2.786-0.637,4.271L259.856,183.417z"/>
	<path fill="#4D4D4D" d="M275.263,171.521c1.921-0.535,3.699-0.991,5.336-1.366s3.086-0.688,4.35-0.938
		c1.263-0.25,2.294-0.428,3.095-0.535s1.325-0.161,1.574-0.161c1.139,0,1.708,0.639,1.708,1.916v2.715
		c1.203-0.674,2.442-1.313,3.718-1.916c1.274-0.604,2.522-1.127,3.744-1.57s2.391-0.786,3.506-1.029s2.099-0.365,2.949-0.365
		c0.955,0,1.796,0.169,2.522,0.505c0.726,0.336,1.346,0.787,1.859,1.354s0.894,1.204,1.142,1.912s0.372,1.434,0.372,2.177
		c0,0.779-0.133,1.531-0.398,2.257s-0.672,1.371-1.221,1.938s-1.23,1.019-2.044,1.354c-0.814,0.336-1.77,0.504-2.866,0.504h-1.115
		c-0.178,0-0.372-0.009-0.584-0.026c-0.213-0.018-0.407-0.044-0.584-0.08v-1.169c0-1.63-0.328-2.772-0.983-3.429
		c-0.655-0.655-1.496-0.983-2.523-0.983c-1.063,0-2.26,0.231-3.588,0.692s-2.63,1.047-3.905,1.757v29.921
		c0,0.853-0.428,1.35-1.281,1.491c-0.605,0.105-1.255,0.203-1.948,0.293c-0.693,0.088-1.36,0.159-2.001,0.213
		c-0.641,0.052-1.229,0.088-1.762,0.106c-0.533,0.017-0.942,0.026-1.227,0.026c-0.854,0-1.281-0.443-1.281-1.33v-28.989
		c0-1.879-0.303-3.165-0.907-3.856c-0.605-0.691-1.548-1.037-2.827-1.037c-0.392,0-0.774,0.01-1.147,0.027
		c-0.374,0.018-0.827,0.08-1.36,0.186L275.263,171.521z"/>
</g>
<g>
	<path fill="#4D4D4D" d="M609.495,159.737l-19.836,48.441c-0.143,0.391-0.462,0.621-0.958,0.692c-0.639,0.07-1.357,0.124-2.155,0.16
		c-0.799,0.034-1.605,0.053-2.422,0.053c-0.568,0-0.958-0.267-1.171-0.799l-18.612-49.188l-6.134,49.028
		c-0.071,0.426-0.391,0.656-0.958,0.691c-0.639,0.07-1.429,0.133-2.368,0.187c-0.94,0.053-1.925,0.08-2.954,0.08
		c-0.497,0-0.745-0.195-0.745-0.586c0-0.248,0.018-0.425,0.054-0.532l10.391-56.533l-1.703-4.685
		c-0.071-0.213-0.106-0.39-0.106-0.532c0-0.567,0.354-0.904,1.063-1.012c0.567-0.105,1.232-0.203,1.995-0.292
		c0.762-0.089,1.507-0.169,2.234-0.24c0.727-0.07,1.392-0.124,1.995-0.159c0.603-0.035,1.046-0.054,1.329-0.054
		c0.39,0,0.691,0.106,0.904,0.319s0.407,0.515,0.585,0.905l19.044,50.198l19.518-44.716l-0.532-4.418
		c-0.036-0.035-0.054-0.178-0.054-0.426c0-0.604,0.337-0.976,1.012-1.118c0.567-0.105,1.224-0.203,1.969-0.292
		s1.473-0.169,2.183-0.24c0.709-0.07,1.356-0.124,1.942-0.159c0.585-0.035,1.02-0.054,1.304-0.054c0.887,0,1.384,0.408,1.49,1.225
		l7.25,61.005c0.035,0.143,0.054,0.258,0.054,0.347s0,0.169,0,0.239c0,0.674-0.338,1.064-1.012,1.171
		c-0.604,0.105-1.295,0.203-2.075,0.293c-0.781,0.088-1.544,0.159-2.289,0.213c-0.745,0.052-1.428,0.088-2.049,0.106
		c-0.621,0.017-1.074,0.026-1.357,0.026c-0.319,0-0.585-0.063-0.798-0.187c-0.213-0.125-0.338-0.329-0.373-0.612L609.495,159.737z"
		/>
	<path fill="#4D4D4D" d="M671.015,203.875c-1.703,0.815-3.494,1.568-5.374,2.26s-3.716,1.286-5.507,1.782
		c-1.791,0.495-3.458,0.877-5.001,1.144c-1.543,0.265-2.829,0.398-3.857,0.398c-2.873,0-5.418-0.541-7.635-1.623
		s-4.079-2.519-5.587-4.311c-1.508-1.791-2.651-3.857-3.432-6.199c-0.78-2.341-1.17-4.771-1.17-7.29
		c0-3.264,0.603-6.234,1.809-8.913c1.205-2.678,2.846-4.966,4.92-6.864s4.495-3.37,7.262-4.417c2.766-1.047,5.691-1.57,8.777-1.57
		c2.021,0,3.813,0.311,5.373,0.931s2.872,1.471,3.937,2.552c1.063,1.081,1.879,2.384,2.446,3.907s0.852,3.189,0.852,4.996
		c0,1.56-0.302,3.509-0.903,5.848l-24.981,1.329c0.142,2.238,0.585,4.281,1.329,6.129s1.798,3.446,3.163,4.796
		s3.031,2.397,4.998,3.144s4.227,1.119,6.779,1.119c1.701,0,3.518-0.203,5.449-0.61s3.659-0.912,5.184-1.515L671.015,203.875z
		 M659.187,183.417c0.105-0.495,0.177-0.973,0.212-1.433s0.054-0.938,0.054-1.434c0-0.99-0.15-1.927-0.451-2.812
		s-0.734-1.654-1.301-2.309s-1.274-1.168-2.124-1.539s-1.805-0.558-2.866-0.558c-1.699,0-3.159,0.31-4.38,0.929
		s-2.229,1.442-3.025,2.468c-0.797,1.026-1.39,2.221-1.778,3.582c-0.39,1.362-0.602,2.786-0.637,4.271L659.187,183.417z"/>
	<path fill="#4D4D4D" d="M701.281,139.709c3.906-1.068,7.121-1.824,9.643-2.27s4.03-0.668,4.527-0.668
		c1.137,0,1.705,0.639,1.705,1.916v62.148c0,1.207,0.079,2.315,0.239,3.326c0.159,1.012,0.346,1.978,0.559,2.899l0.054,0.319
		c0,0.533-0.355,0.888-1.065,1.064c-0.463,0.106-0.987,0.204-1.574,0.293c-0.588,0.088-1.192,0.159-1.815,0.213
		c-0.623,0.053-1.236,0.089-1.841,0.106c-0.605,0.018-1.157,0.026-1.655,0.026c-0.392,0-0.686-0.107-0.881-0.322
		s-0.347-0.537-0.453-0.967l-0.801-3.007c-1.667,0.645-3.316,1.254-4.947,1.826s-3.174,1.064-4.628,1.476s-2.784,0.742-3.989,0.993
		c-1.206,0.25-2.234,0.376-3.085,0.376c-2.306,0-4.39-0.586-6.251-1.756s-3.448-2.66-4.761-4.47
		c-1.313-1.809-2.313-3.813-3.005-6.013s-1.037-4.346-1.037-6.439c0-3.618,0.655-6.819,1.968-9.604s3.104-5.136,5.373-7.052
		s4.929-3.37,7.979-4.363s6.313-1.49,9.788-1.49c2.127,0,4.237,0.16,6.33,0.479v-21.746c0-1.879-0.302-3.163-0.903-3.854
		c-0.603-0.691-1.594-1.037-2.975-1.037c-0.674,0-1.399,0.054-2.179,0.159L701.281,139.709z M707.656,178.998
		c0-1.171-0.293-2.155-0.877-2.954c-0.585-0.798-1.32-1.437-2.205-1.915c-0.886-0.479-1.86-0.825-2.923-1.038
		s-2.09-0.319-3.082-0.319c-2.303,0-4.278,0.347-5.926,1.038s-2.984,1.658-4.012,2.9s-1.78,2.723-2.259,4.443
		s-0.717,3.593-0.717,5.614c0,1.703,0.203,3.539,0.611,5.508c0.407,1.969,1.071,3.796,1.992,5.481s2.125,3.078,3.613,4.178
		s3.313,1.649,5.474,1.649c0.318,0,0.797-0.035,1.435-0.106c0.638-0.07,1.408-0.204,2.312-0.399s1.913-0.461,3.029-0.798
		c1.115-0.337,2.294-0.771,3.534-1.305V178.998z"/>
</g>
</svg>
